<?xml version="1.0" encoding="UTF-8" standalone="no"?>
<!-- Created with Inkscape (http://www.inkscape.org/) -->

<svg
   xmlns:dc="http://purl.org/dc/elements/1.1/"
   xmlns:cc="http://creativecommons.org/ns#"
   xmlns:rdf="http://www.w3.org/1999/02/22-rdf-syntax-ns#"
   xmlns:svg="http://www.w3.org/2000/svg"
   xmlns="http://www.w3.org/2000/svg"
   xmlns:sodipodi="http://sodipodi.sourceforge.net/DTD/sodipodi-0.dtd"
   xmlns:inkscape="http://www.inkscape.org/namespaces/inkscape"
   width="210mm"
   height="297mm"
   viewBox="0 0 210 297"
   version="1.1"
   id="svg16"
   inkscape:version="0.92.4 (5da689c313, 2019-01-14)"
   sodipodi:docname="Logotip.svg">
  <defs
     id="defs10" />
  <sodipodi:namedview
     id="base"
     pagecolor="#ffffff"
     bordercolor="#666666"
     borderopacity="1.0"
     inkscape:pageopacity="0.0"
     inkscape:pageshadow="2"
     inkscape:zoom="1.2436942"
     inkscape:cx="412.01822"
     inkscape:cy="576.75744"
     inkscape:document-units="mm"
     inkscape:current-layer="layer1"
     showgrid="false"
     inkscape:snap-bbox="false"
     inkscape:bbox-paths="true"
     inkscape:window-width="1920"
     inkscape:window-height="1001"
     inkscape:window-x="-9"
     inkscape:window-y="-9"
     inkscape:window-maximized="1" />
  <metadata
     id="metadata13">
    <rdf:RDF>
      <cc:Work
         rdf:about="">
        <dc:format>image/svg+xml</dc:format>
        <dc:type
           rdf:resource="http://purl.org/dc/dcmitype/StillImage" />
        <dc:title></dc:title>
      </cc:Work>
    </rdf:RDF>
  </metadata>
  <g
     inkscape:label="Layer 1"
     inkscape:groupmode="layer"
     id="layer1">
    <path
       style="fill:#ececec;fill-opacity:0.13559325;stroke-width:0.26458332"
       id="path831"
       d="m -518.66926,-98.391135 c 1.2207,1.665904 2.41924,3.365749 3.74591,4.95336 0.99822,1.138142 1.84894,2.392222 2.7863,3.576682 0.66691,1.016366 1.58774,1.815524 2.23544,2.842731 0.68133,0.848712 1.23833,1.775519 1.85759,2.666125 0.80944,0.98168 1.55776,1.979363 2.20416,3.076424 0.7393,1.26941 1.62963,2.438561 2.38832,3.695975 0.782,1.071131 1.46653,2.218174 2.08179,3.393331 0.7225,1.42512 1.64172,2.732083 2.44306,4.111456 0.49551,1.231813 1.32982,2.269731 1.94469,3.433445 0.44823,1.236557 0.97014,2.427824 1.61517,3.573949 0.65387,1.223108 1.04291,2.553602 1.6477,3.801449 0.54541,1.257242 1.02094,2.550149 1.46714,3.847372 0.54641,1.04222 0.87278,2.168893 1.31778,3.25342 0.47871,1.19725 0.56031,2.487586 0.89667,3.723219 0.42289,1.309442 0.85318,2.598015 1.10273,3.957714 0.30345,1.533904 0.77018,3.023357 1.18735,4.527561 0.32959,1.363583 0.83984,2.660063 1.10728,4.041076 0.14695,1.493026 0.29459,2.966768 0.56803,4.443569 0.30099,1.848435 0.3574,3.724021 0.41315,5.592431 0.0415,1.652991 0.0432,3.306603 0.0443,4.960005 0,1.516272 -0.003,3.032544 -0.003,4.548816 0,1.509955 0,3.019911 0,4.529867 -3e-5,1.511713 0,3.0234264 0,4.5351399 0,1.5119231 0,3.0238462 0,4.5357693 0,1.5119088 0,3.02381765 0,4.5357266 -0.11671,1.5377429 -0.43445,3.0487117 -0.59555,4.5828089 -0.25019,1.5157503 -0.5846,3.0102794 -0.75764,4.5386893 -0.28035,1.456857 -0.60547,2.891657 -0.763,4.370563 -0.13745,1.542727 -0.14772,3.092707 -0.15685,4.640338 0.005,0.696952 -0.15089,1.363842 -0.32647,2.031616 0,0 -10.20252,4.717911 -10.20252,4.717911 v 0 c 0.31377,-0.52717 0.44432,-1.056043 0.53899,-1.665199 0.005,-1.577776 0.0106,-3.157031 0.11737,-4.731937 0.12043,-1.477951 0.26633,-2.963349 0.75358,-4.373673 0.13383,-1.530393 0.36637,-3.04556 0.76052,-4.532739 0.12615,-1.5092378 0.34909,-3.0026422 0.64236,-4.4886191 0,-1.5119088 0,-3.0238176 0,-4.5357263 0,-1.51192086 0,-3.02384169 0,-4.5357625 -3e-5,-1.5117119 -3e-5,-3.0234235 -6e-5,-4.5351355 -2e-5,-1.5100943 -8e-5,-3.0201888 0,-4.5302826 0,-1.516923 0.003,-3.033846 0.006,-4.550764 0.004,-1.649049 0.0122,-3.298198 -0.008,-4.947178 -0.0334,-1.811137 -0.0752,-3.629333 -0.35986,-5.422005 -0.26734,-1.476694 -0.51242,-2.939104 -0.58026,-4.441096 -0.22434,-1.362432 -0.73091,-2.626355 -1.04407,-3.964784 -0.40738,-1.542222 -0.90623,-3.055728 -1.24288,-4.617328 -0.21347,-1.334447 -0.6368,-2.577547 -1.0704,-3.848026 -0.33687,-1.196327 -0.44635,-2.423568 -0.83725,-3.603808 -0.45373,-1.109226 -0.78743,-2.256663 -1.34496,-3.322912 -0.40814,-1.257149 -0.8795,-2.499553 -1.38707,-3.717338 -0.61437,-1.222515 -0.98566,-2.532319 -1.61333,-3.744971 -0.66169,-1.149029 -1.21205,-2.348153 -1.64899,-3.600666 -0.59684,-1.153568 -1.42324,-2.182871 -1.89428,-3.406712 -0.8033,-1.390092 -1.71077,-2.718107 -2.4669,-4.136004 -0.63889,-1.143084 -1.28831,-2.28388 -2.05298,-3.347571 -0.76131,-1.256454 -1.64534,-2.434453 -2.40062,-3.694981 -0.64788,-1.066884 -1.39633,-2.042713 -2.18879,-3.007685 -0.61148,-0.910492 -1.21033,-1.822297 -1.87301,-2.699139 -0.63426,-0.985919 -1.5476,-1.762736 -2.16575,-2.765499 -0.90254,-1.196414 -1.78048,-2.409301 -2.73383,-3.567599 -1.3276,-1.639202 -2.48798,-3.406987 -3.84278,-5.026504 0,0 9.68803,-5.676895 9.68803,-5.676895 z"
       inkscape:connector-curvature="0" />
    <path
       style="fill:#ececec;fill-opacity:0.13559325;stroke-width:0.26458332"
       id="path835"
       d="m 13.803386,105.39502 c 0.114353,0.41748 0.166889,0.84729 0.248317,1.27121 0.08212,0.40398 0.184262,0.80436 0.298938,1.20041 0.09359,0.41724 0.189972,0.83431 0.288013,1.25099 0.08986,0.58219 0.261384,1.14104 0.466686,1.69124 0.160575,0.53669 0.31315,1.07399 0.504274,1.60125 0.199718,0.53299 0.362443,1.07845 0.555657,1.61355 0.225866,0.59412 0.476892,1.17665 0.673152,1.78162 0.162302,0.52725 0.361726,1.04258 0.578859,1.54947 0.181127,0.48689 0.435232,0.93923 0.651748,1.41001 0.24063,0.42279 0.40408,0.88246 0.619077,1.31682 0.170399,0.39434 0.36813,0.77509 0.564692,1.15651 0.173768,0.38184 0.382115,0.74827 0.525083,1.14317 0.15012,0.41092 0.351053,0.80225 0.547227,1.19281 0.236511,0.39703 0.41915,0.82211 0.62392,1.23566 0.156034,0.30915 0.249922,0.6425 0.396845,0.95567 0.140818,0.27422 0.263269,0.55034 0.336363,0.85044 0.08556,0.29529 0.196694,0.58159 0.273734,0.87937 0.04859,0.2848 0.09045,0.5674 0.155894,0.84902 0.06377,0.27472 0.129757,0.54974 0.201723,0.82256 0.09437,0.33999 0.142106,0.68915 0.170854,1.03999 0.02125,0.31212 0.02184,0.62512 0.02256,0.93781 -2.6e-5,0.30091 -8.2e-4,0.60181 -0.0012,0.90272 -3.44e-4,0.30067 -3.97e-4,0.60135 -4.23e-4,0.90202 -1.39e-4,0.33135 -0.0021,0.66268 -0.0017,0.99402 -0.0025,0.36112 -5.82e-4,0.72225 4.23e-4,1.08337 8.47e-4,0.31088 0.0011,0.62176 0.0012,0.93264 0.02181,0.30975 -0.03539,0.61246 -0.08325,0.91655 -0.05863,0.26017 -0.141268,0.51148 -0.181043,0.77597 -0.03442,0.28631 -0.0355,0.57519 -0.03763,0.86315 0.0037,0.25887 -0.0092,0.51842 0.0069,0.77701 -2.340619,1.24278 -2.155022,1.45237 -1.794449,0.36424 0.127375,-0.3681 0.250639,-0.73814 0.388319,-1.10256 0.155909,-0.46583 0.3753,-0.90579 0.566364,-1.3574 0.267427,-0.67379 0.581832,-1.32726 0.873134,-1.9908 0.445463,-1.02299 0.914742,-2.03563 1.411318,-3.03481 0.582253,-1.18742 1.118056,-2.39513 1.720071,-3.57309 0.905092,-1.70456 1.786146,-3.42213 2.71022,-5.1165 1.181073,-2.08834 2.374347,-4.16957 3.568461,-6.25046 0.757135,-1.44002 1.605757,-2.82665 2.445327,-4.21905 0.833041,-1.37802 1.701303,-2.73437 2.563117,-4.09447 0.530656,-0.82042 1.040056,-1.65404 1.557541,-2.48264 0.309724,-0.52575 0.627978,-1.04642 0.947296,-1.56639 0.234331,-0.3212 0.435853,-0.66332 0.642667,-1.00231 0.14002,-0.23051 0.293926,-0.45361 0.476052,-0.65291 0.09062,-0.11183 0.04745,-0.0528 0.128873,-0.17761 0,0 2.05485,-0.8863 2.05485,-0.8863 v 0 c -0.09551,0.11183 -0.05295,0.0493 -0.124601,0.1897 -0.162356,0.21066 -0.362063,0.39117 -0.500359,0.62271 -0.197291,0.35045 -0.409736,0.69609 -0.652533,1.01682 -0.343443,0.50964 -0.643896,1.05035 -0.966394,1.57334 -0.53872,0.83441 -1.055576,1.68306 -1.61104,2.50689 -0.874903,1.35696 -1.74607,2.71669 -2.584391,4.09668 -0.830549,1.40779 -1.693104,2.79678 -2.47821,4.23118 -1.216339,2.06219 -2.416447,4.13318 -3.557264,6.23845 -0.908781,1.69074 -1.823382,3.37937 -2.681915,5.09627 -0.204324,0.4173 -0.418134,0.82993 -0.61963,1.2486 -0.28344,0.58893 -0.529544,1.19532 -0.809149,1.78582 -0.08428,0.17799 -0.177412,0.35165 -0.266117,0.52747 -0.499834,0.98801 -0.954036,1.9992 -1.397857,3.01337 -0.270199,0.66291 -0.580206,1.30853 -0.841557,1.97485 -0.184719,0.45066 -0.405597,0.88645 -0.559867,1.34843 -0.14324,0.35909 -0.259544,0.72846 -0.385963,1.09279 -0.05197,0.14215 -0.09952,0.28741 -0.143229,0.43192 -0.01155,0.0382 0.0093,0.0972 -0.0254,0.11691 -2.08373,1.18565 -2.19819,1.82691 -2.054039,1.05095 0.01356,-0.26146 0.0012,-0.52352 0.0051,-0.78518 7.14e-4,-0.29548 2.91e-4,-0.59144 0.02376,-0.88619 0.02755,-0.26818 0.07546,-0.5318 0.180935,-0.78178 0.04203,-0.29547 0.120735,-0.58615 0.09797,-0.88684 1.4e-4,-0.3113 3.71e-4,-0.6226 0.0012,-0.93391 9.79e-4,-0.36125 0.0029,-0.72252 3.97e-4,-1.08377 3.96e-4,-0.33078 -0.0016,-0.66154 -0.0017,-0.99231 1.7e-5,-0.30075 3.2e-5,-0.60149 2.91e-4,-0.90223 3.18e-4,-0.30081 9.26e-4,-0.60161 0.0016,-0.90242 2.41e-4,-0.30827 0.0015,-0.61673 -0.01322,-0.92473 -0.02095,-0.33696 -0.05667,-0.67403 -0.151909,-0.99934 -0.08054,-0.27335 -0.138371,-0.55496 -0.210175,-0.83036 -0.06301,-0.2817 -0.117632,-0.5605 -0.149426,-0.84775 -0.07117,-0.30121 -0.187543,-0.5865 -0.277272,-0.88222 -0.06071,-0.28786 -0.178173,-0.54723 -0.313481,-0.80748 -0.149179,-0.31232 -0.232976,-0.64779 -0.383134,-0.95965 -0.202366,-0.41406 -0.388112,-0.837 -0.622103,-1.23489 -0.199218,-0.39905 -0.410233,-0.79523 -0.566111,-1.21353 -0.134409,-0.38689 -0.337645,-0.74484 -0.505692,-1.11768 -0.20392,-0.38014 -0.395044,-0.76689 -0.568836,-1.16186 -0.211033,-0.43856 -0.372118,-0.90034 -0.615263,-1.32419 -0.219474,-0.47136 -0.470865,-0.9274 -0.651459,-1.41631 -0.225019,-0.51253 -0.424036,-1.03602 -0.583948,-1.57279 -0.185327,-0.60474 -0.447252,-1.17786 -0.670762,-1.76884 -0.209293,-0.52991 -0.349173,-1.08411 -0.554273,-1.61618 -0.19814,-0.52542 -0.361514,-1.05867 -0.506848,-1.60064 -0.200668,-0.55864 -0.394131,-1.12091 -0.486611,-1.70979 -0.09973,-0.41242 -0.207151,-0.82271 -0.290066,-1.23879 -0.113301,-0.40269 -0.219691,-0.80785 -0.307469,-1.21672 -0.08449,-0.416 -0.111868,-0.84457 -0.249718,-1.24943 0,0 1.961731,-1.06932 1.961731,-1.06932 z"
       inkscape:connector-curvature="0" />
    <ellipse
       style="fill:#000000;fill-opacity:0.88559325;stroke-width:0.26458332"
       id="path865"
       cx="104.48861"
       cy="152.6132"
       rx="82.360313"
       ry="70.766151" />
    <path
       id="path891"
       d="m 85.41483,203.81077 h 34.22816 c 11.51123,0 22.12899,-4.54307 27.70933,-11.89259 l 30.51792,-40.1834 c 0.60701,-0.79864 0.31782,-1.77964 -0.6943,-2.35289 l -3.13731,-1.78058 c -3.62292,-2.30893 -8.47896,-3.48632 -13.41272,-3.25346 -5.03745,0.25343 -9.69432,1.93113 -12.85619,4.63097 l -3.59291,2.9991 -0.0437,-43.69404 c -0.005,-5.32021 -6.05229,-9.648176 -13.4018,-9.648176 -2.88362,0 -5.36073,0.666778 -7.80512,1.797406 v -3.364757 c 2e-5,-5.322995 -5.85041,-9.607953 -13.20265,-9.607953 h -0.24688 c -6.68114,0 -12.230099,3.55459 -13.18766,8.202394 -2.246597,-1.218524 -5.026534,-1.884378 -7.892406,-1.890923 -7.352239,-9.35e-4 -13.310415,4.319567 -13.310415,9.643509 v 9.68556 c -2.095171,-1.13341 -4.907845,-1.70013 -7.792814,-1.70013 h -0.234597 c -7.333141,0 -13.315871,4.27 -13.333603,9.57897 -0.04637,13.76947 -0.01772,38.05121 0.01227,59.77432 0.01773,12.73985 14.228421,23.05667 31.677368,23.05667 z M 59.312341,120.98913 c 0.01087,-3.20298 3.486516,-5.75785 7.746448,-5.75785 h 0.234618 c 4.270844,0 7.792826,2.51186 7.792826,5.72418 v 25.18512 c 0,1.05767 1.250836,1.91522 2.793577,1.91522 1.544106,0 2.793578,-0.85755 2.793578,-1.91522 v -42.7252 c 0,-3.21139 3.399215,-5.8252 7.694614,-5.8252 4.272209,0 7.670066,2.61381 7.670066,5.8252 v 42.72707 c 0,1.05767 1.250834,1.91523 2.793576,1.91523 1.544106,0 2.793576,-0.85756 2.793576,-1.91523 V 97.071169 c 0,-3.212325 3.57926,-5.780304 7.85149,-5.780304 h 0.24688 c 4.27086,0 7.74646,2.589483 7.74646,5.799938 v 10.920007 c -0.003,0.0963 -0.005,0.18891 -0.005,0.28709 0,0.0421 0,0.0814 0.005,0.12251 0,4.85355 -0.002,10.11014 -0.003,15.11612 -0.003,11.61017 -0.007,21.6352 0,22.6134 0.004,1.05768 1.26038,1.91243 2.80313,1.90869 1.54274,-0.004 2.78949,-0.8641 2.78403,-1.92179 -0.004,-0.97163 -0.002,-10.99482 0,-22.6003 0,-5.12941 0.003,-10.52162 0.003,-15.47429 0.16231,-3.1057 3.57244,-5.5942 7.74372,-5.5942 4.26674,0 7.74234,2.611 7.74507,5.82051 l 0.0506,49.03669 c 9.9e-4,0.80892 0.74204,1.52994 1.8524,1.80207 1.11033,0.27306 2.35025,0.0374 3.09911,-0.58729 l 8.54032,-7.12694 c 2.19204,-1.88345 5.42484,-3.05708 8.92909,-3.24131 3.42785,-0.15524 6.79568,0.67332 9.29601,2.28743 0.0354,0.0225 0.071,0.044 0.10777,0.0645 l 1.45271,0.82577 -29.47713,38.80028 c -4.6146,6.07768 -13.33361,9.83053 -22.75375,9.83053 h -34.2283 c -14.371645,0 -26.075208,-8.59984 -26.090212,-19.22994 -0.03001,-21.72031 -0.05866,-45.99831 -0.01227,-59.76124 z m 0,0"
       inkscape:connector-curvature="0"
       style="fill:#fdffff;fill-opacity:1;stroke-width:0.28913531" />
    <path
       style="fill:#fdffff;fill-opacity:1;stroke-width:0.26458332"
       id="path920"
       d="m 68.052568,154.03092 c 0.402873,0.57784 0.804167,1.15557 1.163751,1.76193 0.288859,0.37661 0.475766,0.80881 0.67354,1.2358 0.247877,0.41965 0.40714,0.87952 0.601546,1.32391 0.233426,0.47582 0.423582,0.96501 0.598231,1.46448 0.181154,0.53486 0.350654,1.07214 0.503472,1.61621 0.202087,0.65968 0.481365,1.28921 0.707073,1.94068 0.191146,0.51605 0.383286,1.02743 0.539938,1.55595 0.152961,0.56433 0.358891,1.10977 0.579204,1.65041 0.16392,0.44066 0.286568,0.89529 0.4336,1.34156 0.143578,0.41901 0.229682,0.85312 0.380801,1.26977 0.222488,0.4849 0.344556,1.00422 0.532813,1.50157 0.213513,0.56701 0.425529,1.1333 0.611179,1.71029 0.196033,0.47526 0.375875,0.95663 0.561967,1.43574 0.223571,0.41885 0.378786,0.86604 0.536565,1.31224 0.20025,0.41836 0.388247,0.83773 0.555045,1.27102 0.211474,0.51995 0.409618,1.04598 0.683829,1.53688 0.264901,0.40405 0.370425,0.87783 0.551371,1.31866 0.179287,0.42555 0.299339,0.87019 0.464317,1.30149 0.226163,0.40608 0.349771,0.85462 0.516194,1.28584 0.02593,0.0474 0.04699,0.0978 0.07775,0.14218 0.0227,0.0328 0.107336,0.0867 0.109987,0.0469 0.0033,-0.0496 0.01696,-0.16992 -0.02697,-0.14665 -2.575189,1.36378 -3.099003,2.49243 -2.591871,1.45041 0.08833,-0.54785 0.07612,-1.1079 0.07786,-1.66149 -0.0011,-0.59602 -0.0024,-1.19204 -0.004,-1.78805 -7.94e-4,-0.592 0.0011,-1.18396 -0.0019,-1.77596 -0.02294,-0.53825 0.0088,-1.07023 0.08344,-1.60285 0.05117,-0.52196 0.163073,-1.03431 0.240292,-1.55234 0.136298,-0.79616 0.273611,-1.59242 0.424659,-2.38593 0.112675,-0.71438 0.275053,-1.41583 0.465682,-2.11277 0.206976,-0.61416 0.358516,-1.24336 0.568299,-1.85642 0.238863,-0.7557 0.534525,-1.49215 0.85666,-2.21583 0.230934,-0.55992 0.537869,-1.0817 0.792938,-1.63037 0.243001,-0.45814 0.513334,-0.9008 0.763357,-1.35509 0.225047,-0.44518 0.527545,-0.84108 0.805117,-1.25338 0.39843,-0.63227 0.800684,-1.26125 1.281797,-1.83436 0.350081,-0.36985 0.625782,-0.79906 0.955702,-1.18566 0.32689,-0.29258 0.591394,-0.64067 0.875035,-0.97284 0.280461,-0.35796 0.628965,-0.65382 0.9457,-0.97826 0.257961,-0.31028 0.590862,-0.54149 0.886592,-0.8117 0.259639,-0.23364 0.505693,-0.48293 0.770091,-0.71106 1.035111,-0.73705 2.127322,-1.29608 3.262239,-1.94048 0.238151,-0.0842 0.127561,-0.0298 0.333108,-0.16052 0.215556,-0.10354 0.104579,-0.0582 0.333081,-0.13557 0,0 -2.482416,1.95683 -2.482416,1.95683 v 0 c -0.209341,0.10393 -0.105376,0.0501 -0.311875,0.1615 -0.111374,0.0512 -0.43407,0.22776 -0.328226,0.16591 4.638402,-2.71073 3.008558,-1.86482 2.140373,-1.19935 -0.318233,0.15398 -0.513609,0.44989 -0.796555,0.65489 -0.277415,0.29748 -0.606464,0.5232 -0.903832,0.7988 -0.28661,0.34667 -0.63268,0.63452 -0.947156,0.95534 -0.255931,0.3581 -0.55232,0.70074 -0.868563,1.00465 -0.378397,0.35105 -0.624578,0.80482 -0.971918,1.1835 -0.519914,0.52911 -0.9232,1.15671 -1.301768,1.79197 -0.27078,0.41088 -0.558991,0.80455 -0.801931,1.23141 -0.269624,0.43658 -0.485355,0.90643 -0.774407,1.3312 -0.266543,0.54717 -0.549322,1.08425 -0.811686,1.63252 -0.329546,0.71362 -0.643088,1.43894 -0.872233,2.19152 -0.213167,0.6049 -0.33741,1.23257 -0.56932,1.83102 -0.179229,0.69665 -0.391324,1.38482 -0.486476,2.10077 -0.161631,0.78164 -0.286454,1.57126 -0.41125,2.3595 -0.06803,0.51996 -0.186846,1.0295 -0.23477,1.55175 -0.07919,0.52088 -0.144386,1.03563 -0.109201,1.56468 -0.0026,0.5921 -5.3e-4,1.18417 2.09e-4,1.77626 0,0.59701 0.0021,1.19402 0.0011,1.79103 -0.0013,0.56878 0.0024,1.13788 -0.02506,1.70619 -0.05662,1.39057 -2.584082,2.8511 -3.176619,1.42032 -0.161618,-0.43335 -0.280773,-0.88284 -0.507709,-1.28929 -0.164817,-0.42876 -0.303043,-0.86353 -0.464444,-1.29289 -0.176877,-0.43025 -0.282851,-0.89086 -0.528019,-1.29167 -0.272248,-0.50648 -0.484912,-1.04047 -0.710491,-1.56869 -0.171344,-0.43528 -0.347067,-0.86374 -0.560678,-1.28054 -0.153268,-0.44379 -0.303276,-0.88949 -0.527908,-1.30381 -0.191023,-0.48478 -0.364791,-0.9762 -0.565179,-1.45756 -0.179149,-0.57255 -0.387061,-1.13406 -0.600842,-1.69433 -0.194141,-0.49582 -0.320437,-1.01391 -0.545195,-1.49814 -0.160697,-0.41765 -0.249499,-0.85324 -0.38577,-1.27847 -0.152236,-0.43894 -0.265364,-0.891 -0.419127,-1.3296 -0.218469,-0.55219 -0.427593,-1.10663 -0.590616,-1.6784 -0.153249,-0.52392 -0.349925,-1.02955 -0.528841,-1.54425 -0.230828,-0.65549 -0.485931,-1.30068 -0.702908,-1.96104 -0.163497,-0.5338 -0.35074,-1.05724 -0.517946,-1.58913 -0.174323,-0.49071 -0.340929,-0.98059 -0.578855,-1.44633 -0.200033,-0.44092 -0.35981,-0.8994 -0.615855,-1.31327 -0.187121,-0.42045 -0.360632,-0.84625 -0.634376,-1.2212 -0.348533,-0.60702 -0.742844,-1.18333 -1.177255,-1.73237 0,0 2.726404,-1.59759 2.726404,-1.59759 z"
       inkscape:connector-curvature="0" />
    <path
       style="fill:#fdffff;fill-opacity:1;stroke-width:0.26458332"
       id="path960"
       d="m 82.217259,184.31774 c 0.109736,-0.63719 0.120925,-1.28505 0.191873,-1.92623 0.07759,-0.41699 0.152281,-0.83295 0.189042,-1.25575 0.03978,-0.40783 0.146026,-0.80054 0.277228,-1.1868 0.103614,-0.38804 0.195231,-0.77914 0.303684,-1.16617 0.134448,-0.42097 0.311544,-0.82334 0.413898,-1.25419 0.117753,-0.46993 0.304776,-0.92272 0.49014,-1.36993 0.209323,-0.44878 0.393936,-0.90914 0.606484,-1.35631 0.17464,-0.39496 0.329353,-0.79767 0.512447,-1.18889 0.186434,-0.3732 0.38826,-0.73803 0.583952,-1.10659 0.333838,-0.5544 0.587774,-1.1497 0.883531,-1.72419 0.186539,-0.46166 0.407932,-0.89622 0.661937,-1.32369 0.284498,-0.55858 0.615564,-1.0901 0.932151,-1.63055 0.278519,-0.42315 0.511796,-0.87259 0.763296,-1.31171 0.198295,-0.37216 0.44559,-0.71413 0.662599,-1.07493 0.227274,-0.3754 0.440899,-0.75785 0.664199,-1.13554 0.222827,-0.36917 0.457057,-0.73071 0.671698,-1.10489 0.205634,-0.31543 0.345601,-0.67385 0.603393,-0.95111 1.103045,-0.62902 2.34301,-1.63321 3.705899,-1.85405 0.201444,-0.11173 0.422799,-0.16155 0.646782,-0.20283 0,0 -2.513308,1.91746 -2.513308,1.91746 v 0 c -0.217509,0.0644 -0.427681,0.15237 -0.650449,0.19737 -1.190401,0.32714 -2.904826,1.33977 1.752475,-1.22257 -0.39121,0.17284 -0.421754,0.50623 -0.66807,0.8237 -0.192876,0.38672 -0.421635,0.75631 -0.671171,1.10876 -0.20025,0.39118 -0.436304,0.76427 -0.666528,1.13752 -0.192709,0.37814 -0.448717,0.71356 -0.65337,1.08251 -0.271444,0.43349 -0.488241,0.89592 -0.778851,1.31752 -0.321451,0.53283 -0.656482,1.05843 -0.925571,1.61997 -0.234958,0.43763 -0.53049,0.8354 -0.676095,1.31782 -0.29835,0.57051 -0.555546,1.1595 -0.871178,1.72011 -0.191701,0.37033 -0.38083,0.73882 -0.583993,1.10071 -0.205399,0.37998 -0.357836,0.7797 -0.513176,1.18132 -0.212487,0.44844 -0.41739,0.89887 -0.61991,1.35264 -0.198089,0.42305 -0.344448,0.87115 -0.509982,1.30654 -0.08149,0.44664 -0.236016,0.86141 -0.400111,1.2825 -0.134078,0.37784 -0.213908,0.77387 -0.298315,1.16492 -0.112379,0.37377 -0.266213,0.7289 -0.312619,1.12149 -0.02708,0.43231 -0.08082,0.86131 -0.188367,1.28189 -0.122105,0.62873 -0.09903,1.27969 -0.185737,1.91431 0,0 -2.829907,1.39786 -2.829907,1.39786 z"
       inkscape:connector-curvature="0" />
    <path
       style="fill:#fdffff;fill-opacity:1;stroke-width:0.26458332"
       id="path962"
       d="m 97.623409,155.30736 c 0.29808,0.45303 0.727832,0.73629 1.235398,0.90001 0.414102,-0.004 0.859965,0.009 1.255883,-0.12447 0.0584,-0.0186 0.11636,-0.0389 0.17532,-0.0558 0.15106,-0.0432 0.21329,-0.0387 0.35131,-0.12154 0.0527,-0.0316 0.19836,-0.14427 0.14479,-0.11415 -2.492191,1.40112 -3.298403,2.1289 -2.469194,1.39158 0.1596,-0.26416 0.09385,-0.61534 0.08263,-0.9114 -0.0019,-0.37852 -0.01577,-0.54258 -0.399457,-0.63088 -0.245094,-0.0344 -0.486222,-0.0302 -0.727131,-0.0883 0,0 2.589665,-1.81089 2.589665,-1.81089 v 0 c 0.256307,0.0299 0.517797,0.0411 0.761797,0.13387 0.39405,0.19456 0.60179,0.49909 0.58282,0.95085 0.0164,0.35941 0.0573,0.72317 0.008,1.08113 -0.50141,1.27812 -2.314542,1.74306 -3.614694,2.08723 -0.44985,0.054 -0.914627,0.10824 -1.354796,-0.0294 -0.542409,-0.2319 -0.999316,-0.57951 -1.349182,-1.06029 0,0 2.726404,-1.59759 2.726404,-1.59759 z"
       inkscape:connector-curvature="0" />
    <path
       style="fill:#fdffff;fill-opacity:1;stroke-width:0.26458332"
       id="path980"
       d="m 101.30643,161.22353 c -0.49798,0.30017 -0.89956,0.72064 -1.29269,1.14236 -0.252188,0.25841 -0.49856,0.50732 -0.655458,0.83487 -0.147979,0.27413 -0.297953,0.54819 -0.461767,0.81323 -0.168476,0.30734 -0.383114,0.58749 -0.53236,0.90472 -0.121327,0.35942 -0.307599,0.69117 -0.441595,1.04481 -0.109767,0.36989 -0.280379,0.71476 -0.436946,1.06577 -0.185039,0.31122 -0.281585,0.66153 -0.412419,0.99667 -0.177697,0.33792 -0.282988,0.70555 -0.422098,1.05963 -0.181673,0.34587 -0.353475,0.68983 -0.486076,1.05759 -0.114382,0.3209 -0.27254,0.62412 -0.387215,0.94437 -0.124543,0.39467 -0.280385,0.7783 -0.426628,1.16521 -0.17988,0.33221 -0.249952,0.69495 -0.320932,1.06077 -0.06422,0.3351 -0.209949,0.64247 -0.317291,0.96343 -0.06288,0.34818 -0.156903,0.68836 -0.237929,1.03255 -0.10406,0.33284 -0.200273,0.66431 -0.276973,1.00493 -0.123791,0.33713 -0.187609,0.68575 -0.222113,1.04181 0.005,0.3868 -0.0709,0.76045 -0.144269,1.13749 -0.07095,0.38765 -0.08345,0.78226 -0.09299,1.17521 -0.0279,0.37782 -0.11384,0.74761 -0.155395,1.12397 0.0059,0.0254 0.04134,0.0652 0.01767,0.0762 -2.139863,0.98931 -3.145816,2.23036 -2.851465,0.55086 0.09148,-0.36514 0.131551,-0.73825 0.155033,-1.11298 0.0276,-0.38816 0.155223,-0.75648 0.27047,-1.1248 0.159393,-0.4108 0.252018,-0.84266 0.402421,-1.25588 0.193918,-0.38961 0.283461,-0.81486 0.415324,-1.22615 0.131472,-0.39623 0.333396,-0.7628 0.496533,-1.14623 0.217548,-0.37666 0.360945,-0.7851 0.530897,-1.18319 0.177239,-0.38138 0.37129,-0.75321 0.534249,-1.14111 0.195991,-0.39301 0.377466,-0.79251 0.584391,-1.17998 0.244443,-0.35974 0.424373,-0.75634 0.665752,-1.11747 0.1983,-0.32245 0.340022,-0.67361 0.532575,-1.00001 0.261562,-0.45084 0.504902,-0.91206 0.777415,-1.3567 0.264067,-0.35365 0.519811,-0.71383 0.80274,-1.05288 0.240747,-0.32838 0.514866,-0.62824 0.822981,-0.89378 0.96705,-0.77807 2.014313,-1.169 3.152158,-1.89295 0.83047,-0.52837 -1.704083,0.98563 -2.558599,1.47414 -0.358334,0.20485 0.245207,-0.15422 0.274486,-0.17169 1.115142,-0.8637 2.400353,-1.46276 3.666193,-2.05206 0.40661,-0.16971 0.84539,-0.20747 1.28037,-0.23072 0.4282,0.0222 0.81639,0.17632 1.22007,0.29836 0.33652,0.1534 0.64274,0.35482 0.95588,0.54817 0.28916,0.19911 0.5052,0.45808 0.70124,0.7459 0.23894,0.25965 0.39145,0.58448 0.51671,0.91084 0.0825,0.16144 0.15281,0.32754 0.21853,0.4963 0,0 -2.76207,1.53624 -2.76207,1.53624 v 0 c -0.0631,-0.17045 -0.13373,-0.33683 -0.21733,-0.49852 -0.11214,-0.30647 -0.26586,-0.59566 -0.48386,-0.84076 -0.17549,-0.25142 -0.36731,-0.47465 -0.63091,-0.63894 -0.28866,-0.18608 -0.58723,-0.36095 -0.9101,-0.48136 -0.37142,-0.12291 -0.74904,-0.23189 -1.14588,-0.20177 -0.4194,0.0442 -0.83286,0.1223 -1.208783,0.32432 -0.181051,0.0917 -0.366889,0.1638 -0.550537,0.24846 -0.04886,0.0225 -0.188653,0.10352 -0.142237,0.0763 2.733227,-1.60219 3.389217,-2.02744 2.432327,-1.41112 -0.18849,0.17543 -0.0464,0.0625 -0.26867,0.19182 -0.94934,0.5524 -1.894978,1.11115 -2.845017,1.66235 -0.848445,0.49226 1.691947,-0.99301 2.540237,-1.48552 0.10852,-0.063 -0.44362,0.26965 -0.29895,0.22875 -0.33943,0.20791 -0.61456,0.49962 -0.857136,0.81179 -0.25577,0.35757 -0.54947,0.68999 -0.824682,1.03269 -0.289245,0.4297 -0.543989,0.88548 -0.766493,1.35283 -0.221747,0.31247 -0.377975,0.65469 -0.531336,1.00357 -0.07549,0.1148 -0.166534,0.21891 -0.241218,0.33423 -0.159001,0.24553 -0.227184,0.54576 -0.432866,0.76373 -0.22674,0.37214 -0.390774,0.76991 -0.60093,1.15066 -0.173117,0.38084 -0.316261,0.7746 -0.531185,1.1359 -0.168749,0.40077 -0.303088,0.81718 -0.532273,1.18987 -0.171916,0.36982 -0.318349,0.74979 -0.51299,1.10943 -0.117893,0.42347 -0.230201,0.85193 -0.403924,1.25744 -0.188245,0.39226 -0.234643,0.82407 -0.41325,1.22132 -0.09533,0.35591 -0.232579,0.69666 -0.302942,1.05978 -0.01603,0.38707 -0.03797,0.77607 -0.12758,1.15442 -0.04153,0.16556 -0.07635,0.29026 -0.071,0.46211 0.0016,0.0474 0.047,0.11867 0.0058,0.14229 -2.761565,1.58398 -3.70789,0.83725 -2.807301,1.52673 0.114991,-0.34604 0.104362,-0.72592 0.19994,-1.07787 0.0057,-0.40641 0.01201,-0.81414 0.06718,-1.2175 0.05972,-0.37198 0.183066,-0.72985 0.159946,-1.11118 0.02302,-0.37242 0.0541,-0.7487 0.188458,-1.10053 0.124431,-0.31638 0.109699,-0.67933 0.290663,-0.97999 0.06327,-0.35629 0.198281,-0.6899 0.227142,-1.05197 0.0775,-0.33485 0.242721,-0.62512 0.320778,-0.95872 0.122587,-0.36216 0.0966,-0.77009 0.30216,-1.10939 0.186137,-0.35575 0.282905,-0.75574 0.440142,-1.12535 0.08319,-0.34656 0.256643,-0.64392 0.374224,-0.97785 0.172799,-0.34986 0.248346,-0.74654 0.480616,-1.07116 0.193376,-0.33248 0.24462,-0.71861 0.421494,-1.05929 0.185624,-0.31734 0.23001,-0.68688 0.403701,-1.00995 0.202682,-0.309 0.321183,-0.67415 0.463476,-1.01357 0.101465,-0.37509 0.299519,-0.69736 0.433454,-1.05985 0.108826,-0.3531 0.312364,-0.63953 0.507743,-0.94841 0.147688,-0.27492 0.319456,-0.53259 0.466469,-0.80594 0.09383,-0.15384 0.132159,-0.32426 0.231777,-0.47476 0.12685,-0.19164 0.1015,-0.10746 0.25953,-0.27545 0.05076,-0.0539 0.09398,-0.11453 0.140975,-0.1718 0.417754,-0.40104 0.771316,-0.8751 1.259547,-1.19865 0,0 2.942751,-1.15141 2.942751,-1.15141 z"
       inkscape:connector-curvature="0" />
    <path
       style="fill:#fdffff;fill-opacity:1;stroke-width:0.26458332"
       id="path982"
       d="m 113.27734,163.53793 c -0.144,0.56665 -0.30304,1.12543 -0.51496,1.67073 -0.12123,0.39483 -0.30573,0.75703 -0.5263,1.10365 -0.23126,0.35888 -0.46925,0.71169 -0.66684,1.09054 -0.19202,0.38679 -0.45577,0.73279 -0.6415,1.12201 -0.15165,0.36494 -0.38027,0.69188 -0.58448,1.02887 -0.26469,0.34939 -0.50741,0.71446 -0.74014,1.08574 -0.20881,0.35512 -0.39993,0.72023 -0.64569,1.05182 -0.19523,0.30073 -0.3657,0.6183 -0.53712,0.93327 -0.17065,0.33273 -0.36521,0.65271 -0.54594,0.9802 -0.21669,0.39231 -0.41531,0.79279 -0.59458,1.20335 -0.21099,0.46673 -0.39671,0.94111 -0.64007,1.39246 -0.25185,0.4324 -0.44069,0.89682 -0.6795,1.33599 -0.18159,0.3483 -0.28643,0.72824 -0.45704,1.08177 -0.17018,0.35043 -0.31994,0.70538 -0.40768,1.0854 -0.0772,0.40731 -0.0821,0.8232 -0.0876,1.23631 0.0101,0.40978 -0.0257,0.82287 0.0179,1.23097 0.0451,0.34342 0.24832,0.62253 0.45752,0.88691 0.32058,0.35791 0.65054,0.65929 1.11025,0.81364 0.33023,0.18739 0.69157,0.25125 1.06401,0.28324 0.39762,0.0579 0.69579,-0.17701 1.02557,-0.35121 -4.72145,2.68564 -2.6781,1.6254 -1.70941,0.88271 0.4171,-0.32802 0.82251,-0.67032 1.23221,-1.00759 0.39938,-0.36066 0.82731,-0.68897 1.22762,-1.04796 0.29126,-0.30521 0.62963,-0.55878 0.94173,-0.8417 0.38366,-0.31314 0.76591,-0.62603 1.13546,-0.95573 0.41715,-0.33122 0.80564,-0.69569 1.18571,-1.0683 0.38105,-0.41703 0.7538,-0.84131 1.1399,-1.25377 0.39852,-0.43187 0.80259,-0.86221 1.17406,-1.31787 0.27569,-0.34753 0.55611,-0.69052 0.82223,-1.04572 0.26032,-0.30898 0.44395,-0.66922 0.67991,-0.99479 0.26962,-0.3641 0.51681,-0.74528 0.74245,-1.13812 0.1928,-0.34745 0.39717,-0.68813 0.58899,-1.03623 0.20174,-0.35771 0.42424,-0.7029 0.62786,-1.05973 0.22255,-0.40103 0.41632,-0.81722 0.60314,-1.23581 0.19794,-0.35634 0.3601,-0.72963 0.5408,-1.09435 0.22211,-0.39599 0.35579,-0.83002 0.5475,-1.24046 0.19707,-0.34435 0.38276,-0.67916 0.47425,-1.06742 0.095,-0.34022 0.16613,-0.68948 0.28149,-1.02365 0.10974,-0.2863 0.16558,-0.58848 0.18223,-0.89385 0.34927,1.51026 3.67717,-2.47607 2.49788,-0.8659 -0.22255,0.37702 -0.47722,0.73311 -0.72905,1.0908 -0.30896,0.42899 -0.62708,0.85124 -0.93645,1.27992 -0.3245,0.45441 -0.64434,0.912 -0.95996,1.37264 -0.25486,0.45701 -0.54357,0.8923 -0.79512,1.35118 -0.28172,0.47517 -0.54633,0.96006 -0.81979,1.43992 -0.29374,0.45843 -0.52336,0.9513 -0.75459,1.44279 -0.23802,0.46517 -0.42696,0.95104 -0.62918,1.43199 -0.28659,0.61324 -0.434,1.27263 -0.61468,1.92075 -0.12015,0.45991 -0.2645,0.91342 -0.41328,1.36481 -0.14917,0.47164 -0.19843,0.96351 -0.22557,1.45481 -0.0103,0.52839 -0.10927,1.04927 -0.16402,1.57407 -0.0486,0.49441 -0.0574,0.99124 -0.0617,1.48761 -0.004,0.50436 -0.003,1.00872 -10e-4,1.51308 0.002,0.44543 0.003,0.89086 0.003,1.33629 -5.3e-4,0.36415 0.22099,0.41406 0.53189,0.45271 0.42413,0.0767 0.80559,-0.0909 1.20417,-0.20183 0.53111,-0.18799 1.03529,-0.43811 1.55048,-0.66518 0.59047,-0.24555 1.16603,-0.5244 1.75207,-0.77958 0.53641,-0.21638 1.03674,-0.50604 1.55706,-0.75807 0.53385,-0.2885 1.05966,-0.58201 1.61528,-0.82976 0.0928,-0.0478 0.18718,-0.0927 0.27848,-0.14337 0.19447,-0.10787 0.77536,-0.43598 0.58301,-0.32435 -0.79195,0.45958 -3.17588,1.82431 -2.3837,1.36514 2.96284,-1.71737 1.94231,-1.2622 3.28669,-1.84404 0.36879,-0.20716 0.7529,-0.38419 1.12055,-0.593 0,0 -2.45475,1.97636 -2.45475,1.97636 v 0 c -0.37245,0.19122 -0.74173,0.38884 -1.11991,0.56873 -0.0961,0.0482 -0.38071,0.19935 -0.28824,0.14457 0.78859,-0.46717 3.17183,-1.83879 2.37715,-1.38208 -1.27283,0.73151 -2.52943,1.53874 -3.85678,2.18476 -0.54719,0.25956 -1.06376,0.57409 -1.60874,0.83802 -0.51562,0.26746 -1.0372,0.51776 -1.56972,0.7501 -0.57956,0.26517 -1.16602,0.51448 -1.74767,0.77492 -0.52099,0.23175 -1.03537,0.48334 -1.58667,0.6375 -0.4307,0.12464 -0.86168,0.19508 -1.3055,0.0834 -0.41512,-0.12474 -0.71204,-0.36184 -0.74596,-0.82269 2e-4,-0.44607 5.3e-4,-0.89213 0.001,-1.33819 8e-4,-0.50546 -2.6e-4,-1.01092 5.3e-4,-1.51637 0.005,-0.50484 0.005,-1.01061 0.05,-1.51387 0.0505,-0.52092 0.1477,-1.03739 0.17243,-1.55928 0.0192,-0.51283 0.0522,-1.0265 0.18895,-1.5241 0.12786,-0.45778 0.30265,-0.90165 0.42013,-1.36261 0.19359,-0.65634 0.33823,-1.32713 0.61089,-1.95816 0.19705,-0.48397 0.36281,-0.97887 0.60595,-1.44272 0.24778,-0.48862 0.44325,-1.00567 0.75177,-1.46181 0.26872,-0.48226 0.53247,-0.96718 0.82188,-1.43733 0.25589,-0.46354 0.5281,-0.90925 0.78179,-1.37234 0.29849,-0.47276 0.63649,-0.92023 0.95652,-1.37846 0.29165,-0.44414 0.62785,-0.85427 0.93731,-1.28533 0.2489,-0.34721 0.48665,-0.70181 0.72401,-1.05555 0.1803,-0.39941 -0.0339,0.0243 0.1698,-0.26131 0.0292,-0.0409 0.027,-0.10629 0.069,-0.13387 1.02698,-0.67518 2.37771,-2.73189 3.00236,-1.42988 -0.0693,0.3171 -0.0514,0.65133 -0.16659,0.95973 -0.12022,0.3241 -0.19168,0.6548 -0.30711,0.98184 -0.0634,0.41515 -0.17994,0.80543 -0.44732,1.13944 -0.19006,0.41703 -0.35766,0.83703 -0.5378,1.25766 -0.20612,0.35038 -0.32903,0.73844 -0.54045,1.08661 -0.23181,0.39633 -0.36762,0.84616 -0.60333,1.24118 -0.18141,0.36725 -0.39582,0.71899 -0.62892,1.05537 -0.17143,0.35885 -0.37323,0.70393 -0.58922,1.03735 -0.19399,0.41642 -0.46418,0.79672 -0.72113,1.17587 -0.0364,0.0531 -0.0728,0.10628 -0.10918,0.15941 -0.0414,0.0476 -0.0878,0.0913 -0.1241,0.14291 -0.15914,0.2258 -0.23166,0.50981 -0.45343,0.69312 -0.24193,0.37538 -0.52685,0.72269 -0.82168,1.05733 -0.337,0.49063 -0.78478,0.89798 -1.16592,1.35383 -0.38925,0.40847 -0.77111,0.8238 -1.13641,1.25397 -0.35622,0.3986 -0.76,0.75779 -1.17031,1.09908 -0.38521,0.30589 -0.7278,0.66149 -1.12646,0.95239 -0.3315,0.25792 -0.62796,0.55817 -0.95849,0.8164 -0.18555,0.21192 -0.37815,0.35024 -0.59839,0.52265 -0.40619,0.31798 -0.05,0.0649 -0.42966,0.40328 -0.0608,0.0542 -0.12987,0.0982 -0.1948,0.14723 -0.38924,0.35389 -0.80765,0.68107 -1.22116,1.00622 -1.05344,0.98855 -2.65824,1.27381 -3.67746,2.27691 -0.36507,0.18768 -0.73019,0.27789 -1.14185,0.20139 -0.38869,-0.0599 -0.7567,-0.17297 -1.10757,-0.35383 -0.47672,-0.22083 -0.84572,-0.56415 -1.19696,-0.95113 -0.24585,-0.30699 -0.47932,-0.63446 -0.54474,-1.03156 -0.0688,-0.42026 -0.022,-0.84945 -0.0357,-1.27405 0.003,-0.42975 0.004,-0.86111 0.0607,-1.2879 0.0672,-0.40725 0.19255,-0.78554 0.36997,-1.15767 0.17458,-0.35778 0.33058,-0.71657 0.45522,-1.0963 0.23948,-0.44448 0.46578,-0.89323 0.68854,-1.34719 0.26141,-0.43589 0.4604,-0.89442 0.63522,-1.37051 0.21835,-0.38989 0.34834,-0.82875 0.59292,-1.20752 0.15937,-0.33451 0.34504,-0.65776 0.54581,-0.96846 0.14059,-0.34478 0.36733,-0.64106 0.51368,-0.98459 0.23087,-0.33747 0.48885,-0.65367 0.66433,-1.02825 0.20908,-0.38756 0.46128,-0.75923 0.72683,-1.10624 0.23455,-0.29907 0.39651,-0.65237 0.61255,-0.9652 0.14367,-0.42364 0.41335,-0.76779 0.63357,-1.15325 0.20229,-0.38334 0.40705,-0.75739 0.64519,-1.11996 0.2343,-0.32337 0.45639,-0.65687 0.56735,-1.04546 0.21217,-0.53396 0.4283,-1.0652 0.51592,-1.6377 0,0 2.85413,-1.35557 2.85413,-1.35557 z"
       inkscape:connector-curvature="0" />
    <path
       style="fill:#fdffff;fill-opacity:1;stroke-width:0.26458332"
       id="path988"
       d="m 136.36365,165.56203 c -0.64061,-0.0912 -1.28688,-0.13206 -1.93298,-0.1581 -0.4943,-0.0672 -0.94216,0.0585 -1.40396,0.21026 -0.33587,0.23453 -0.7155,0.33131 -1.11511,0.38227 -0.33172,0.0842 -0.62629,0.25247 -0.94937,0.35278 -0.34639,0.069 -0.69987,0.071 -0.99701,0.2803 -0.0464,0.0247 -0.18478,0.10024 -0.13924,0.074 0.81629,-0.47018 3.27169,-1.86911 2.45955,-1.3918 -0.94391,0.55476 -1.88619,1.11253 -2.83925,1.65143 -0.21285,0.0602 -0.11511,0.0159 -0.29474,0.12964 4.70412,-2.83131 2.72517,-1.59766 1.70184,-0.89677 -0.28131,0.22827 -0.60761,0.38951 -0.89395,0.61026 -5.80159,3.37418 -1.89385,1.09644 -0.26846,0.16975 0.0488,-0.0278 -0.0942,0.0614 -0.13911,0.0952 -0.15755,0.11844 -0.30308,0.25397 -0.45593,0.37842 -0.30584,0.27062 -0.58824,0.56557 -0.88677,0.84376 -0.25197,0.23843 -0.37894,0.53826 -0.36384,0.88221 0.0129,0.33784 0.15188,0.49591 0.37589,0.71579 0.2076,0.2472 0.45,0.43294 0.64397,0.69572 0.23742,0.28396 0.51463,0.51443 0.79392,0.75234 0.22375,0.26262 0.46216,0.50736 0.71237,0.74496 0.3389,0.32391 0.72795,0.59017 1.11295,0.85575 0.33218,0.27948 0.69622,0.51317 1.04733,0.76779 0.35292,0.26158 0.72493,0.49693 1.0924,0.73794 0.3395,0.2946 0.73543,0.50529 1.09254,0.77729 0.36398,0.28864 0.7392,0.55841 1.06506,0.89102 0.31455,0.30906 0.56818,0.67169 0.87225,0.98962 0.24498,0.30172 0.52272,0.55653 0.70379,0.90422 0.21521,0.31213 0.31193,0.66649 0.369,1.0359 0.0488,0.41649 0.0473,0.83666 0.0486,1.25536 -0.004,0.41626 0.021,0.83267 -0.0471,1.2447 -0.0855,0.3663 -0.30022,0.68436 -0.48455,1.0073 -0.17486,0.31665 -0.37969,0.61727 -0.62154,0.8864 -0.24251,0.29787 -0.54649,0.53766 -0.87537,0.73274 -1.17902,0.8107 -2.39281,1.57612 -3.68985,2.19826 -0.42789,0.22625 -0.89827,0.32971 -1.34936,0.49118 -0.44776,0.16178 -0.89448,0.32447 -1.35208,0.4602 -0.59604,0.0788 -1.18319,0.19384 -1.77449,0.30049 -0.4926,0.0857 -0.97651,0.21813 -1.45949,0.3487 -0.45943,0.12276 -0.93332,0.15945 -1.40645,0.17854 -0.53697,0.0232 -1.06862,0.12315 -1.6048,0.17258 -0.59268,0.0715 -1.18457,0.15506 -1.78072,0.20685 -0.6258,0.0686 -1.24863,0.15971 -1.87726,0.21231 -0.51475,0.0409 -1.03114,0.0496 -1.54724,0.0532 -0.52234,0.003 -1.04466,-0.004 -1.567,-0.005 -0.63563,-0.002 -1.27127,-0.002 -1.9069,5.3e-4 -0.49589,0.003 -0.99179,0.002 -1.48768,0.002 -0.48035,-2.7e-4 -0.9607,0.002 -1.44104,2.6e-4 -0.49262,-0.001 -0.98524,0.002 -1.47786,-2.6e-4 -0.5198,5.3e-4 -1.0396,-0.001 -1.5594,-5.2e-4 -0.47097,7.9e-4 -0.94194,0.002 -1.41291,0.002 -0.49182,-0.0359 -0.97052,0.0477 -1.45606,0.10938 -0.51952,0.0696 -1.04301,0.0878 -1.56636,0.0975 -0.47964,0.007 -0.95933,0.007 -1.43901,0.007 -0.52964,-0.003 -1.0593,-0.004 -1.58895,-0.003 -0.49769,0.002 -0.99536,9e-5 -1.493048,2.6e-4 -0.483267,0.002 -0.966528,5.3e-4 -1.449793,0 -0.567372,-0.001 -1.134726,-0.003 -1.702101,-0.001 -0.540774,0.004 -1.081527,-7.9e-4 -1.622301,-5.3e-4 -0.507801,0.0942 -1.019201,0.15241 -1.534237,0.18486 -0.574471,0.0261 -1.149559,0.0272 -1.724482,0.0299 -0.481338,0.002 -0.962679,0.002 -1.444019,0.002 -0.427776,0 -0.855549,-6e-5 -1.283325,-10e-5 -0.453937,-0.0257 -0.895852,0.0135 -1.344043,0.0736 -0.55317,0.0317 -1.077529,0.17304 -1.597782,0.3516 -0.431776,0.12193 -0.871564,0.18679 -1.286671,0.36275 -0.392756,0.23917 -0.834853,0.37743 -1.267397,0.52525 -0.16369,0.12003 -0.354841,0.17952 -0.538676,0.2568 -0.04473,0.0188 -0.172381,0.089 -0.130339,0.0648 2.686733,-1.54858 3.137123,-0.62122 2.594274,-1.63132 -0.08992,-0.20715 0.01196,-0.15734 0.173453,-0.15612 0,0 -2.57316,1.84616 -2.57316,1.84616 v 0 c -0.221501,-0.0234 -0.305215,-0.0339 -0.439042,-0.24421 -0.01998,-0.0583 -0.111535,-0.1412 -0.05995,-0.17495 1.044842,-0.68344 2.248199,-1.41444 3.458768,-1.90124 0.42908,-0.16178 0.851971,-0.33181 1.267468,-0.52579 0.427148,-0.12899 0.865878,-0.21025 1.28941,-0.35172 0.531489,-0.16184 1.077438,-0.24695 1.629682,-0.30266 0.45774,-0.0565 0.915842,-0.0529 1.37659,-0.0475 0.427445,1.1e-4 0.85489,2.7e-4 1.282335,0.001 0.478306,0.001 0.956609,0.003 1.434915,0.002 0.571219,-0.002 1.143103,-0.007 1.713045,-0.049 0.516366,-0.0451 1.027064,-0.14096 1.544941,-0.1635 0.541253,2.6e-4 1.082479,-0.004 1.62373,-5.3e-4 0.568579,0.001 1.137145,1e-4 1.705715,-0.001 0.48328,-5.3e-4 0.96656,-0.002 1.44984,-2e-5 0.49723,2.7e-4 0.99445,-0.002 1.49167,8e-4 0.53157,0.001 1.06314,0.001 1.5947,-8e-4 0.47625,5.3e-4 0.95258,0.002 1.42873,-0.01 0.5165,-0.017 1.03245,-0.0505 1.54473,-0.12125 0.4949,-0.0639 0.98841,-0.10619 1.48826,-0.0833 0.46897,5.3e-4 0.93795,0.001 1.40692,0.002 0.52029,5.3e-4 1.04058,-0.001 1.56087,-5.2e-4 0.49286,-0.002 0.98572,0.001 1.47858,-2.7e-4 0.48009,-0.002 0.96018,5.3e-4 1.44028,2.7e-4 0.49443,-5.3e-4 0.98885,-0.002 1.48328,0.002 0.63435,0.002 1.2687,0.004 1.90305,0.002 0.52577,1e-5 1.05153,-0.004 1.5773,-0.006 0.5071,-0.006 1.01444,-0.0188 1.51981,-0.0641 0.62784,-0.0593 1.24945,-0.16496 1.87811,-0.2142 0.59724,-0.0585 1.18863,-0.15719 1.78584,-0.21344 0.53927,-0.0577 1.07556,-0.14888 1.61845,-0.16571 0.46038,-0.0332 0.91776,-0.0954 1.36184,-0.22639 0.48618,-0.12976 0.97691,-0.24759 1.47389,-0.32776 0.58445,-0.10945 1.17802,-0.17524 1.75208,-0.33174 0.45329,-0.14998 0.89949,-0.3184 1.35328,-0.46652 0.45584,-0.13684 0.89548,-0.31239 1.32056,-0.52768 1.03677,-0.54309 0.64429,-0.34179 -2.30405,1.36787 -0.0537,0.0311 0.10405,-0.0682 0.15157,-0.10813 0.11876,-0.0997 0.14544,-0.16437 0.27342,-0.25229 0.0517,-0.0355 0.11051,-0.0595 0.16577,-0.0893 0.30244,-0.21448 0.64774,-0.36212 0.90629,-0.64153 0.21338,-0.28079 0.47673,-0.52055 0.65406,-0.8313 0.15713,-0.31678 0.34808,-0.61332 0.51968,-0.92192 0.0934,-0.39396 0.0893,-0.7861 0.0797,-1.19082 -1.3e-4,-0.40524 0.003,-0.81139 -0.0321,-1.21547 -0.0412,-0.33928 -0.11994,-0.65694 -0.31942,-0.94194 -0.16214,-0.32199 -0.44216,-0.54725 -0.65842,-0.83203 -0.28935,-0.32541 -0.54782,-0.67812 -0.86399,-0.97942 -0.32052,-0.31385 -0.67939,-0.58184 -1.0351,-0.85417 -0.35905,-0.25675 -0.74416,-0.47519 -1.0822,-0.76117 -0.37571,-0.24099 -0.75101,-0.48444 -1.10923,-0.75081 -0.3417,-0.25935 -0.70838,-0.48208 -1.03358,-0.7634 -0.39843,-0.27425 -0.79242,-0.5594 -1.14603,-0.89051 -0.24953,-0.23043 -0.47637,-0.47875 -0.70558,-0.72901 -0.30017,-0.24796 -0.57568,-0.51794 -0.83194,-0.81165 -0.1886,-0.24058 -0.43264,-0.41562 -0.62301,-0.65479 -0.25883,-0.25405 -0.44815,-0.538 -0.48317,-0.91019 -0.0542,-0.40779 0.002,-0.79389 0.25202,-1.13413 0.27645,-0.30292 0.5933,-0.5672 0.88031,-0.8597 1.46918,-1.478 6.5852,-3.76304 0.84396,-0.67529 0.30318,-0.20001 0.57855,-0.43824 0.90625,-0.6036 1.09719,-0.93515 2.62088,-1.32545 3.69693,-2.25192 0.0985,-0.0406 0.37973,-0.19249 0.28781,-0.13871 -5.46707,3.19942 -1.08584,0.59692 0.53167,-0.31691 0.3362,-0.0996 0.68577,-0.13264 1.01483,-0.25601 0.31531,-0.13411 0.64055,-0.24457 0.97863,-0.30653 0.38282,-0.0907 0.72221,-0.27072 1.08819,-0.40835 0.47971,-0.1351 0.96358,-0.16813 1.46038,-0.11649 0.65424,0.0393 1.30676,0.0991 1.95847,0.16862 0,0 -2.5764,1.82334 -2.5764,1.82334 z"
       inkscape:connector-curvature="0" />
  </g>
</svg>
